<mxfile host="app.diagrams.net" modified="2024-01-05T03:27:56.389Z" agent="Mozilla/5.0 (Windows NT 10.0; Win64; x64) AppleWebKit/537.36 (KHTML, like Gecko) Chrome/120.0.0.0 Safari/537.36" etag="270k-QjuvJ586OyGEv9Q" version="22.1.16" type="github">
  <diagram id="C5RBs43oDa-KdzZeNtuy" name="Page-1">
    <mxGraphModel dx="794" dy="513" grid="1" gridSize="10" guides="1" tooltips="1" connect="1" arrows="1" fold="1" page="1" pageScale="1" pageWidth="827" pageHeight="1169" math="0" shadow="0">
      <root>
        <mxCell id="WIyWlLk6GJQsqaUBKTNV-0" />
        <mxCell id="WIyWlLk6GJQsqaUBKTNV-1" parent="WIyWlLk6GJQsqaUBKTNV-0" />
        <mxCell id="M3PJ-kUlGKeRfq6kt1kw-4" style="edgeStyle=orthogonalEdgeStyle;rounded=0;orthogonalLoop=1;jettySize=auto;html=1;entryX=0.5;entryY=0;entryDx=0;entryDy=0;" edge="1" parent="WIyWlLk6GJQsqaUBKTNV-1" source="M3PJ-kUlGKeRfq6kt1kw-1" target="M3PJ-kUlGKeRfq6kt1kw-2">
          <mxGeometry relative="1" as="geometry" />
        </mxCell>
        <mxCell id="M3PJ-kUlGKeRfq6kt1kw-1" value="Start" style="rounded=1;whiteSpace=wrap;html=1;" vertex="1" parent="WIyWlLk6GJQsqaUBKTNV-1">
          <mxGeometry x="320" y="230" width="150" height="60" as="geometry" />
        </mxCell>
        <mxCell id="M3PJ-kUlGKeRfq6kt1kw-7" style="edgeStyle=orthogonalEdgeStyle;rounded=0;orthogonalLoop=1;jettySize=auto;html=1;entryX=0.5;entryY=0;entryDx=0;entryDy=0;" edge="1" parent="WIyWlLk6GJQsqaUBKTNV-1" source="M3PJ-kUlGKeRfq6kt1kw-2" target="M3PJ-kUlGKeRfq6kt1kw-6">
          <mxGeometry relative="1" as="geometry" />
        </mxCell>
        <mxCell id="M3PJ-kUlGKeRfq6kt1kw-2" value="FirstName, Lastname, Username,&amp;nbsp; Email, Password, No. Hp,&amp;nbsp;&lt;br&gt;Age" style="shape=parallelogram;perimeter=parallelogramPerimeter;whiteSpace=wrap;html=1;fixedSize=1;" vertex="1" parent="WIyWlLk6GJQsqaUBKTNV-1">
          <mxGeometry x="265" y="330" width="260" height="70" as="geometry" />
        </mxCell>
        <mxCell id="M3PJ-kUlGKeRfq6kt1kw-13" style="edgeStyle=orthogonalEdgeStyle;rounded=0;orthogonalLoop=1;jettySize=auto;html=1;entryX=0.5;entryY=0;entryDx=0;entryDy=0;" edge="1" parent="WIyWlLk6GJQsqaUBKTNV-1" source="M3PJ-kUlGKeRfq6kt1kw-6" target="M3PJ-kUlGKeRfq6kt1kw-11">
          <mxGeometry relative="1" as="geometry" />
        </mxCell>
        <mxCell id="M3PJ-kUlGKeRfq6kt1kw-6" value="Validasi data yang di Berikan user" style="rounded=0;whiteSpace=wrap;html=1;" vertex="1" parent="WIyWlLk6GJQsqaUBKTNV-1">
          <mxGeometry x="335" y="440" width="120" height="60" as="geometry" />
        </mxCell>
        <mxCell id="M3PJ-kUlGKeRfq6kt1kw-10" value="" style="shape=cylinder3;whiteSpace=wrap;html=1;boundedLbl=1;backgroundOutline=1;size=15;" vertex="1" parent="WIyWlLk6GJQsqaUBKTNV-1">
          <mxGeometry x="550" y="550" width="60" height="80" as="geometry" />
        </mxCell>
        <mxCell id="M3PJ-kUlGKeRfq6kt1kw-20" style="edgeStyle=orthogonalEdgeStyle;rounded=0;orthogonalLoop=1;jettySize=auto;html=1;entryX=0.5;entryY=0;entryDx=0;entryDy=0;" edge="1" parent="WIyWlLk6GJQsqaUBKTNV-1" source="M3PJ-kUlGKeRfq6kt1kw-11" target="M3PJ-kUlGKeRfq6kt1kw-19">
          <mxGeometry relative="1" as="geometry" />
        </mxCell>
        <mxCell id="M3PJ-kUlGKeRfq6kt1kw-11" value="Is data user&lt;br&gt;&amp;nbsp;valid ?&amp;nbsp;" style="rhombus;whiteSpace=wrap;html=1;" vertex="1" parent="WIyWlLk6GJQsqaUBKTNV-1">
          <mxGeometry x="345" y="540" width="100" height="80" as="geometry" />
        </mxCell>
        <mxCell id="M3PJ-kUlGKeRfq6kt1kw-12" style="edgeStyle=orthogonalEdgeStyle;rounded=0;orthogonalLoop=1;jettySize=auto;html=1;entryX=0;entryY=0.5;entryDx=0;entryDy=0;entryPerimeter=0;" edge="1" parent="WIyWlLk6GJQsqaUBKTNV-1" source="M3PJ-kUlGKeRfq6kt1kw-11" target="M3PJ-kUlGKeRfq6kt1kw-10">
          <mxGeometry relative="1" as="geometry" />
        </mxCell>
        <mxCell id="M3PJ-kUlGKeRfq6kt1kw-14" value="Yes" style="text;html=1;align=center;verticalAlign=middle;resizable=0;points=[];autosize=1;strokeColor=none;fillColor=none;" vertex="1" parent="WIyWlLk6GJQsqaUBKTNV-1">
          <mxGeometry x="414" y="600" width="40" height="30" as="geometry" />
        </mxCell>
        <mxCell id="M3PJ-kUlGKeRfq6kt1kw-15" style="edgeStyle=elbowEdgeStyle;rounded=0;orthogonalLoop=1;jettySize=auto;html=1;entryX=0.029;entryY=0.414;entryDx=0;entryDy=0;entryPerimeter=0;dashed=1;dashPattern=8 8;" edge="1" parent="WIyWlLk6GJQsqaUBKTNV-1" source="M3PJ-kUlGKeRfq6kt1kw-11" target="M3PJ-kUlGKeRfq6kt1kw-2">
          <mxGeometry relative="1" as="geometry">
            <Array as="points">
              <mxPoint x="230" y="480" />
            </Array>
          </mxGeometry>
        </mxCell>
        <mxCell id="M3PJ-kUlGKeRfq6kt1kw-17" value="No" style="text;html=1;align=center;verticalAlign=middle;resizable=0;points=[];autosize=1;strokeColor=none;fillColor=none;" vertex="1" parent="WIyWlLk6GJQsqaUBKTNV-1">
          <mxGeometry x="295" y="550" width="40" height="30" as="geometry" />
        </mxCell>
        <mxCell id="M3PJ-kUlGKeRfq6kt1kw-23" style="edgeStyle=orthogonalEdgeStyle;rounded=0;orthogonalLoop=1;jettySize=auto;html=1;" edge="1" parent="WIyWlLk6GJQsqaUBKTNV-1" source="M3PJ-kUlGKeRfq6kt1kw-19" target="M3PJ-kUlGKeRfq6kt1kw-22">
          <mxGeometry relative="1" as="geometry" />
        </mxCell>
        <mxCell id="M3PJ-kUlGKeRfq6kt1kw-19" value="Redirect to /login page" style="rounded=0;whiteSpace=wrap;html=1;" vertex="1" parent="WIyWlLk6GJQsqaUBKTNV-1">
          <mxGeometry x="335" y="660" width="120" height="60" as="geometry" />
        </mxCell>
        <mxCell id="M3PJ-kUlGKeRfq6kt1kw-21" value="Kirim data user ke database" style="text;html=1;align=center;verticalAlign=middle;resizable=0;points=[];autosize=1;strokeColor=none;fillColor=none;" vertex="1" parent="WIyWlLk6GJQsqaUBKTNV-1">
          <mxGeometry x="410" y="520" width="170" height="30" as="geometry" />
        </mxCell>
        <mxCell id="M3PJ-kUlGKeRfq6kt1kw-25" style="edgeStyle=orthogonalEdgeStyle;rounded=0;orthogonalLoop=1;jettySize=auto;html=1;entryX=0.5;entryY=0;entryDx=0;entryDy=0;" edge="1" parent="WIyWlLk6GJQsqaUBKTNV-1" source="M3PJ-kUlGKeRfq6kt1kw-22" target="M3PJ-kUlGKeRfq6kt1kw-24">
          <mxGeometry relative="1" as="geometry" />
        </mxCell>
        <mxCell id="M3PJ-kUlGKeRfq6kt1kw-22" value="Start" style="rounded=1;whiteSpace=wrap;html=1;" vertex="1" parent="WIyWlLk6GJQsqaUBKTNV-1">
          <mxGeometry x="335" y="770" width="120" height="60" as="geometry" />
        </mxCell>
        <mxCell id="M3PJ-kUlGKeRfq6kt1kw-27" style="edgeStyle=orthogonalEdgeStyle;rounded=0;orthogonalLoop=1;jettySize=auto;html=1;" edge="1" parent="WIyWlLk6GJQsqaUBKTNV-1" source="M3PJ-kUlGKeRfq6kt1kw-24" target="M3PJ-kUlGKeRfq6kt1kw-26">
          <mxGeometry relative="1" as="geometry" />
        </mxCell>
        <mxCell id="M3PJ-kUlGKeRfq6kt1kw-24" value="(Username or Email), Password" style="shape=parallelogram;perimeter=parallelogramPerimeter;whiteSpace=wrap;html=1;fixedSize=1;" vertex="1" parent="WIyWlLk6GJQsqaUBKTNV-1">
          <mxGeometry x="315" y="870" width="160" height="50" as="geometry" />
        </mxCell>
        <mxCell id="M3PJ-kUlGKeRfq6kt1kw-30" style="edgeStyle=orthogonalEdgeStyle;rounded=0;orthogonalLoop=1;jettySize=auto;html=1;" edge="1" parent="WIyWlLk6GJQsqaUBKTNV-1" source="M3PJ-kUlGKeRfq6kt1kw-26" target="M3PJ-kUlGKeRfq6kt1kw-29">
          <mxGeometry relative="1" as="geometry" />
        </mxCell>
        <mxCell id="M3PJ-kUlGKeRfq6kt1kw-26" value="Validasi Credential" style="rounded=0;whiteSpace=wrap;html=1;" vertex="1" parent="WIyWlLk6GJQsqaUBKTNV-1">
          <mxGeometry x="335" y="950" width="120" height="60" as="geometry" />
        </mxCell>
        <mxCell id="M3PJ-kUlGKeRfq6kt1kw-28" style="edgeStyle=orthogonalEdgeStyle;rounded=0;orthogonalLoop=1;jettySize=auto;html=1;entryX=0.5;entryY=1;entryDx=0;entryDy=0;entryPerimeter=0;dashed=1;dashPattern=12 12;" edge="1" parent="WIyWlLk6GJQsqaUBKTNV-1" source="M3PJ-kUlGKeRfq6kt1kw-26" target="M3PJ-kUlGKeRfq6kt1kw-10">
          <mxGeometry relative="1" as="geometry" />
        </mxCell>
        <mxCell id="M3PJ-kUlGKeRfq6kt1kw-33" style="edgeStyle=elbowEdgeStyle;rounded=0;orthogonalLoop=1;jettySize=auto;html=1;entryX=0;entryY=0.5;entryDx=0;entryDy=0;dashed=1;dashPattern=8 8;" edge="1" parent="WIyWlLk6GJQsqaUBKTNV-1" source="M3PJ-kUlGKeRfq6kt1kw-29" target="M3PJ-kUlGKeRfq6kt1kw-1">
          <mxGeometry relative="1" as="geometry">
            <Array as="points">
              <mxPoint x="160" y="680" />
            </Array>
          </mxGeometry>
        </mxCell>
        <mxCell id="M3PJ-kUlGKeRfq6kt1kw-36" style="edgeStyle=orthogonalEdgeStyle;rounded=0;orthogonalLoop=1;jettySize=auto;html=1;" edge="1" parent="WIyWlLk6GJQsqaUBKTNV-1" source="M3PJ-kUlGKeRfq6kt1kw-29" target="M3PJ-kUlGKeRfq6kt1kw-35">
          <mxGeometry relative="1" as="geometry" />
        </mxCell>
        <mxCell id="M3PJ-kUlGKeRfq6kt1kw-29" value="is data user valid?&amp;nbsp;&amp;nbsp;" style="rhombus;whiteSpace=wrap;html=1;" vertex="1" parent="WIyWlLk6GJQsqaUBKTNV-1">
          <mxGeometry x="347.5" y="1040" width="95" height="80" as="geometry" />
        </mxCell>
        <mxCell id="M3PJ-kUlGKeRfq6kt1kw-34" value="No" style="text;html=1;align=center;verticalAlign=middle;resizable=0;points=[];autosize=1;strokeColor=none;fillColor=none;" vertex="1" parent="WIyWlLk6GJQsqaUBKTNV-1">
          <mxGeometry x="305" y="1048" width="40" height="30" as="geometry" />
        </mxCell>
        <mxCell id="M3PJ-kUlGKeRfq6kt1kw-35" value="Redirect to /HomePage" style="rounded=0;whiteSpace=wrap;html=1;" vertex="1" parent="WIyWlLk6GJQsqaUBKTNV-1">
          <mxGeometry x="335" y="1169" width="120" height="60" as="geometry" />
        </mxCell>
        <mxCell id="M3PJ-kUlGKeRfq6kt1kw-37" value="Yes" style="text;html=1;align=center;verticalAlign=middle;resizable=0;points=[];autosize=1;strokeColor=none;fillColor=none;" vertex="1" parent="WIyWlLk6GJQsqaUBKTNV-1">
          <mxGeometry x="410" y="1098" width="40" height="30" as="geometry" />
        </mxCell>
      </root>
    </mxGraphModel>
  </diagram>
</mxfile>
